<svg xmlns="http://www.w3.org/2000/svg" version="1.1" xmlns:xlink="http://www.w3.org/1999/xlink" xmlns:svgjs="http://svgjs.dev/svgjs" width="2000" height="1247" viewBox="0 0 2000 1247"><g transform="matrix(1,0,0,1,-1.2121212121212466,121.9677180305074)"><svg viewBox="0 0 396 247" data-background-color="#ffffff" preserveAspectRatio="xMidYMid meet" height="1247" width="2000" xmlns="http://www.w3.org/2000/svg" xmlns:xlink="http://www.w3.org/1999/xlink"><g id="tight-bounds" transform="matrix(1,0,0,1,0.2400000000000091,-0.09999999999999432)"><svg viewBox="0 0 395.52 247.2" height="247.2" width="395.52"><g><svg></svg></g><g><svg viewBox="0 0 395.52 247.2" height="247.2" width="395.52"><g transform="matrix(1,0,0,1,87.7927830305576,47.215199999999996)"><svg viewBox="0 0 219.93443393888478 152.7696" height="152.7696" width="219.93443393888478"><g><svg viewBox="0 0 244.43135999999998 169.78551482771667" height="152.7696" width="219.93443393888478"><g><svg viewBox="0 0 244.43135999999998 169.78551482771667" height="169.78551482771667" width="244.43135999999998"><g id="textblocktransform"><svg viewBox="0 0 244.43135999999998 169.78551482771667" height="169.78551482771667" width="244.43135999999998" id="textblock"><g><svg viewBox="0 0 244.43135999999998 135.17153013832802" height="135.17153013832802" width="244.43135999999998"><path d="M243.859 28.992C242.71 14.961 239.435 11.06 239.435 11.06 229.38-3.391 216.832-0.276 205.559 1.8 185.656 1.884 165.834 4.971 145.977 6.627 104.298 6.879 62.263 2.726 20.791 12.969 16.896 16.111-4.041 13.586 0.693 30.788 1.934 37.943 6.462 45.885 6.324 52.451 6.944 53.602 7.806 50.964 8.174 52.62 9.461 57.081 11.564 54.977 13.287 57.614 10.886 64.658 12.609 70.523 14.253 76.668 11.357 78.268 7.645 77.51 5.979 82.814 5.807 86.658 4.876 85.929 3.853 85.76 3.106 85.648 1.601 86.069 1.854 87.275 2.715 91.401-0.985 93.786 1.336 97.827-0.261 102.204 2.44 105.993 2.072 110.735 2.026 111.689 2.279 112.503 2.681 112.727 4.462 113.934 1.865 116.291 2.141 118.845 20.412 136.299 40.234 124.232 58.954 132.258 63.814 126.646 60.16 134.25 62.102 133.072 63.619 131.697 64.722 137.393 66.434 134.166 66.699 133.24 66.296 131.051 67.239 131.472 67.733 131.697 68.169 131.641 68.238 130.35 68.342 128.414 67.434 129.62 67.193 128.61 69.801 123.503 69.158 135.654 71.605 135.148 71.49 133.661 70.778 131.528 72.237 131.809 73.685 129.676 73.731 127.909 75.018 132.707 75.064 133.745 75.294 134.475 75.662 134.98 79.684 129.761 83.683 136.832 87.9 134.475 90.485 131.893 92.968 135.878 95.588 134.896 96.507 134.11 97.438 132.707 98.323 135.064 109.159 135.569 120.707 133.465 130.981 135.148 158.433 132.006 187.77 136.439 216.717 132.286 223.543 130.687 230.633 128.414 237.286 126.59 237.286 126.59 242.675 121.595 242.675 99.145S243.825 79.502 243.997 61.627C244.169 43.752 244.974 43.022 243.825 28.992Z" opacity="1" fill="#ffffff" data-fill-palette-color="tertiary"></path><g transform="matrix(1,0,0,1,34.46482176,16.11037078864)"><svg width="175.50171647999997" viewBox="0.7 -39.6 68.7 40.300000000000004" height="102.95078856104803" data-palette-color="#ffffff"><path d="M20.4 0.7Q10.95 0.7 5.83-4.1 0.7-8.9 0.7-19.45L0.7-19.45Q0.7-39.6 20.3-39.6L20.3-39.6Q25.05-39.6 29.13-38.45 33.2-37.3 35.2-35.9L35.2-35.9 35.2-23.4 23.2-23.4 23.2-27Q23.2-28.9 22.35-29.8 21.5-30.7 19.8-30.7L19.8-30.7Q18.1-30.7 17.25-29.8 16.4-28.9 16.4-27L16.4-27 16.4-11.9Q16.4-10 17.25-9.1 18.1-8.2 19.8-8.2L19.8-8.2Q21.5-8.2 22.35-9.1 23.2-10 23.2-11.9L23.2-11.9 23.2-15.95 35.2-15.95 35.2-3Q33.15-1.6 29.13-0.45 25.1 0.7 20.4 0.7L20.4 0.7ZM52.6 0.7Q47.8 0.7 43.52-0.13 39.25-0.95 36.95-2L36.95-2 36.95-11.9 47.95-11.9Q47.95-10.35 48.65-9.65 49.35-8.95 51.2-8.95L51.2-8.95Q52.75-8.95 53.42-9.43 54.1-9.9 54.1-10.85L54.1-10.85Q54.1-11.65 53.45-12.23 52.8-12.8 51.2-13.4L51.2-13.4 46.9-14.9Q41.35-17 38.92-19.85 36.5-22.7 36.5-27.55L36.5-27.55Q36.5-33.45 40.37-36.52 44.25-39.6 53.3-39.6L53.3-39.6Q57.65-39.6 61.47-38.73 65.3-37.85 67.65-36.4L67.65-36.4 67.65-27.45 57.65-27.45Q57.65-29.95 54.55-29.95L54.55-29.95Q53.05-29.95 52.42-29.58 51.8-29.2 51.8-28.25L51.8-28.25Q51.8-27.4 52.52-26.9 53.25-26.4 54.9-25.85L54.9-25.85 59.25-24.35Q64.55-22.55 66.97-19.68 69.4-16.8 69.4-12.15L69.4-12.15Q69.4-5.8 65.12-2.55 60.85 0.7 52.6 0.7L52.6 0.7Z" opacity="1" transform="matrix(1,0,0,1,0,0)" fill="#000000" class="wordmark-text-0" data-fill-palette-color="quaternary" id="text-0"></path></svg></g></svg></g><g transform="matrix(1,0,0,1,46.68638976,159.475740498666)"><svg viewBox="0 0 151.05858048 10.309774329050665" height="10.309774329050665" width="151.05858048"><g transform="matrix(1,0,0,1,0,0)"><svg width="151.05858048" viewBox="-0.9 -35.25 648.28 44.25" height="10.309774329050665" data-palette-color="#f4a424"><path d="M26.25-35.25L30.9-35.25 17.05-16.65 17.05 0 12.95 0 12.95-16.7-0.9-35.25 3.85-35.25 15.05-20.05 26.25-35.25ZM50.4-13.05L50.4-11.55 32.6-11.55Q32.8-7.3 34.9-5.13 37-2.95 40.85-2.95L40.85-2.95Q45.1-2.95 48.65-5.85L48.65-5.85 50-2.9Q48.4-1.4 45.9-0.53 43.4 0.35 40.8 0.35L40.8 0.35Q35.1 0.35 31.82-3 28.55-6.35 28.55-12.25L28.55-12.25Q28.55-16 30-18.88 31.45-21.75 34.07-23.35 36.7-24.95 40.05-24.95L40.05-24.95Q44.9-24.95 47.65-21.78 50.4-18.6 50.4-13.05L50.4-13.05ZM40.1-21.8Q36.9-21.8 34.97-19.8 33.05-17.8 32.7-14.15L32.7-14.15 46.85-14.15Q46.75-17.85 45-19.83 43.25-21.8 40.1-21.8L40.1-21.8ZM64.59 0.35Q58.45 0.35 54.84-2.8L54.84-2.8 56.2-5.8Q58.14-4.25 60.17-3.58 62.2-2.9 64.75-2.9L64.75-2.9Q67.44-2.9 68.87-3.83 70.3-4.75 70.3-6.5L70.3-6.5Q70.3-7.95 69.34-8.8 68.39-9.65 66.19-10.15L66.19-10.15 62.09-11.1Q58.99-11.8 57.34-13.5 55.7-15.2 55.7-17.7L55.7-17.7Q55.7-20.95 58.24-22.95 60.8-24.95 65.05-24.95L65.05-24.95Q67.59-24.95 69.89-24.13 72.19-23.3 73.75-21.75L73.75-21.75 72.39-18.8Q69.05-21.65 65.05-21.65L65.05-21.65Q62.49-21.65 61.07-20.68 59.64-19.7 59.64-17.95L59.64-17.95Q59.64-16.5 60.52-15.63 61.39-14.75 63.34-14.3L63.34-14.3 67.5-13.3Q70.89-12.5 72.55-10.88 74.19-9.25 74.19-6.65L74.19-6.65Q74.19-3.45 71.62-1.55 69.05 0.35 64.59 0.35L64.59 0.35ZM90.79-2.9Q91.89-2.9 92.99-3.05L92.99-3.05 92.79 0.15Q91.64 0.35 90.29 0.35L90.29 0.35Q85.89 0.35 83.67-1.95 81.44-4.25 81.44-8.35L81.44-8.35 81.44-21.15 76.69-21.15 76.69-24.35 81.44-24.35 81.44-31.75 85.49-31.75 85.49-24.35 92.39-24.35 92.39-21.15 85.49-21.15 85.49-8.65Q85.49-2.9 90.79-2.9L90.79-2.9ZM117.49-13.05L117.49-11.55 99.69-11.55Q99.89-7.3 101.99-5.13 104.09-2.95 107.94-2.95L107.94-2.95Q112.19-2.95 115.74-5.85L115.74-5.85 117.09-2.9Q115.49-1.4 112.99-0.53 110.49 0.35 107.89 0.35L107.89 0.35Q102.19 0.35 98.92-3 95.64-6.35 95.64-12.25L95.64-12.25Q95.64-16 97.09-18.88 98.54-21.75 101.17-23.35 103.79-24.95 107.14-24.95L107.14-24.95Q111.99-24.95 114.74-21.78 117.49-18.6 117.49-13.05L117.49-13.05ZM107.19-21.8Q103.99-21.8 102.06-19.8 100.14-17.8 99.79-14.15L99.79-14.15 113.94-14.15Q113.84-17.85 112.09-19.83 110.34-21.8 107.19-21.8L107.19-21.8ZM136.89-24.95L137.24-21.45 134.59-21.2Q130.84-20.85 129.16-18.85 127.49-16.85 127.49-13.9L127.49-13.9 127.49 0 123.44 0 123.44-24.35 127.39-24.35 127.39-20.1Q129.44-24.35 135.44-24.85L135.44-24.85 136.89-24.95ZM158.14-35.25L162.19-35.25 162.19 0 158.14 0 158.14-4.45Q157.04-2.15 154.91-0.9 152.78 0.35 149.94 0.35L149.94 0.35Q146.74 0.35 144.28-1.25 141.84-2.85 140.49-5.73 139.14-8.6 139.14-12.4L139.14-12.4Q139.14-16.15 140.49-19 141.84-21.85 144.28-23.4 146.74-24.95 149.94-24.95L149.94-24.95Q152.78-24.95 154.91-23.7 157.04-22.45 158.14-20.15L158.14-20.15 158.14-35.25ZM150.74-3Q154.28-3 156.21-5.43 158.14-7.85 158.14-12.3L158.14-12.3Q158.14-16.75 156.21-19.15 154.28-21.55 150.74-21.55L150.74-21.55Q147.19-21.55 145.21-19.15 143.24-16.75 143.24-12.4L143.24-12.4Q143.24-7.95 145.21-5.48 147.19-3 150.74-3L150.74-3ZM179.58-24.95Q184.23-24.95 186.51-22.58 188.78-20.2 188.78-15.35L188.78-15.35 188.78 0 184.83 0 184.83-4.15Q183.88-2 181.93-0.83 179.98 0.35 177.43 0.35L177.43 0.35Q175.08 0.35 173.11-0.6 171.13-1.55 169.98-3.25 168.83-4.95 168.83-7L168.83-7Q168.83-9.75 170.23-11.28 171.63-12.8 174.83-13.48 178.03-14.15 183.73-14.15L183.73-14.15 184.83-14.15 184.83-15.8Q184.83-18.85 183.58-20.23 182.33-21.6 179.53-21.6L179.53-21.6Q175.33-21.6 171.18-19L171.18-19 169.83-21.95Q171.73-23.3 174.41-24.13 177.08-24.95 179.58-24.95L179.58-24.95ZM177.98-2.85Q180.98-2.85 182.91-4.88 184.83-6.9 184.83-10.1L184.83-10.1 184.83-11.55 183.93-11.55Q179.53-11.55 177.23-11.18 174.93-10.8 173.96-9.93 172.98-9.05 172.98-7.35L172.98-7.35Q172.98-5.4 174.41-4.13 175.83-2.85 177.98-2.85L177.98-2.85ZM205.38-4.4L213.63-24.3 217.68-24.3 203.28 9 199.13 9 203.23-0.3 192.93-24.3 197.23-24.3 205.38-4.4ZM243.97-4.4L252.23-24.3 256.27-24.3 241.88 9 237.72 9 241.83-0.3 231.53-24.3 235.83-24.3 243.97-4.4ZM270.27 0.35Q266.82 0.35 264.2-1.2 261.57-2.75 260.15-5.63 258.72-8.5 258.72-12.3L258.72-12.3Q258.72-16.1 260.15-18.98 261.57-21.85 264.2-23.4 266.82-24.95 270.27-24.95L270.27-24.95Q273.72-24.95 276.37-23.4 279.02-21.85 280.45-18.98 281.87-16.1 281.87-12.3L281.87-12.3Q281.87-8.5 280.45-5.63 279.02-2.75 276.37-1.2 273.72 0.35 270.27 0.35L270.27 0.35ZM270.27-3Q273.87-3 275.8-5.38 277.72-7.75 277.72-12.3L277.72-12.3Q277.72-16.75 275.77-19.18 273.82-21.6 270.27-21.6L270.27-21.6Q266.72-21.6 264.77-19.18 262.82-16.75 262.82-12.3L262.82-12.3Q262.82-7.8 264.75-5.4 266.67-3 270.27-3L270.27-3ZM304.37-24.35L308.42-24.35 308.42 0 304.47 0 304.47-4.15Q303.32-1.95 301.25-0.8 299.17 0.35 296.57 0.35L296.57 0.35Q292.22 0.35 290.02-2.08 287.82-4.5 287.82-9.25L287.82-9.25 287.82-24.35 291.87-24.35 291.87-9.35Q291.87-6.1 293.17-4.58 294.47-3.05 297.27-3.05L297.27-3.05Q300.47-3.05 302.42-5.13 304.37-7.2 304.37-10.6L304.37-10.6 304.37-24.35ZM337.12 0.35Q330.97 0.35 327.37-2.8L327.37-2.8 328.72-5.8Q330.67-4.25 332.69-3.58 334.72-2.9 337.26-2.9L337.26-2.9Q339.97-2.9 341.39-3.83 342.81-4.75 342.81-6.5L342.81-6.5Q342.81-7.95 341.87-8.8 340.92-9.65 338.72-10.15L338.72-10.15 334.62-11.1Q331.51-11.8 329.87-13.5 328.22-15.2 328.22-17.7L328.22-17.7Q328.22-20.95 330.76-22.95 333.31-24.95 337.56-24.95L337.56-24.95Q340.12-24.95 342.42-24.13 344.72-23.3 346.26-21.75L346.26-21.75 344.92-18.8Q341.56-21.65 337.56-21.65L337.56-21.65Q335.01-21.65 333.59-20.68 332.17-19.7 332.17-17.95L332.17-17.95Q332.17-16.5 333.04-15.63 333.92-14.75 335.87-14.3L335.87-14.3 340.01-13.3Q343.42-12.5 345.06-10.88 346.72-9.25 346.72-6.65L346.72-6.65Q346.72-3.45 344.14-1.55 341.56 0.35 337.12 0.35L337.12 0.35ZM362.76-24.95Q367.41-24.95 369.69-22.58 371.96-20.2 371.96-15.35L371.96-15.35 371.96 0 368.01 0 368.01-4.15Q367.06-2 365.11-0.83 363.16 0.35 360.61 0.35L360.61 0.35Q358.26 0.35 356.29-0.6 354.31-1.55 353.16-3.25 352.01-4.95 352.01-7L352.01-7Q352.01-9.75 353.41-11.28 354.81-12.8 358.01-13.48 361.21-14.15 366.91-14.15L366.91-14.15 368.01-14.15 368.01-15.8Q368.01-18.85 366.76-20.23 365.51-21.6 362.71-21.6L362.71-21.6Q358.51-21.6 354.36-19L354.36-19 353.01-21.95Q354.91-23.3 357.59-24.13 360.26-24.95 362.76-24.95L362.76-24.95ZM361.16-2.85Q364.16-2.85 366.09-4.88 368.01-6.9 368.01-10.1L368.01-10.1 368.01-11.55 367.11-11.55Q362.71-11.55 360.41-11.18 358.11-10.8 357.14-9.93 356.16-9.05 356.16-7.35L356.16-7.35Q356.16-5.4 357.59-4.13 359.01-2.85 361.16-2.85L361.16-2.85ZM383.41 0L379.36 0 379.36-24.35 383.41-24.35 383.41 0ZM378.96-30.35L378.96-34.9 383.86-34.9 383.86-30.35 378.96-30.35ZM408.51-35.25L412.56-35.25 412.56 0 408.51 0 408.51-4.45Q407.41-2.15 405.28-0.9 403.16 0.35 400.31 0.35L400.31 0.35Q397.11 0.35 394.66-1.25 392.21-2.85 390.86-5.73 389.51-8.6 389.51-12.4L389.51-12.4Q389.51-16.15 390.86-19 392.21-21.85 394.66-23.4 397.11-24.95 400.31-24.95L400.31-24.95Q403.16-24.95 405.28-23.7 407.41-22.45 408.51-20.15L408.51-20.15 408.51-35.25ZM401.11-3Q404.66-3 406.58-5.43 408.51-7.85 408.51-12.3L408.51-12.3Q408.51-16.75 406.58-19.15 404.66-21.55 401.11-21.55L401.11-21.55Q397.56-21.55 395.58-19.15 393.61-16.75 393.61-12.4L393.61-12.4Q393.61-7.95 395.58-5.48 397.56-3 401.11-3L401.11-3ZM443.65-2.9Q444.75-2.9 445.85-3.05L445.85-3.05 445.65 0.15Q444.5 0.35 443.15 0.35L443.15 0.35Q438.75 0.35 436.53-1.95 434.3-4.25 434.3-8.35L434.3-8.35 434.3-21.15 429.55-21.15 429.55-24.35 434.3-24.35 434.3-31.75 438.35-31.75 438.35-24.35 445.25-24.35 445.25-21.15 438.35-21.15 438.35-8.65Q438.35-2.9 443.65-2.9L443.65-2.9ZM460.05 0.35Q456.6 0.35 453.98-1.2 451.35-2.75 449.93-5.63 448.5-8.5 448.5-12.3L448.5-12.3Q448.5-16.1 449.93-18.98 451.35-21.85 453.98-23.4 456.6-24.95 460.05-24.95L460.05-24.95Q463.5-24.95 466.15-23.4 468.8-21.85 470.23-18.98 471.65-16.1 471.65-12.3L471.65-12.3Q471.65-8.5 470.23-5.63 468.8-2.75 466.15-1.2 463.5 0.35 460.05 0.35L460.05 0.35ZM460.05-3Q463.65-3 465.58-5.38 467.5-7.75 467.5-12.3L467.5-12.3Q467.5-16.75 465.55-19.18 463.6-21.6 460.05-21.6L460.05-21.6Q456.5-21.6 454.55-19.18 452.6-16.75 452.6-12.3L452.6-12.3Q452.6-7.8 454.53-5.4 456.45-3 460.05-3L460.05-3ZM504.8-24.95Q512.9-24.95 512.9-15.3L512.9-15.3 512.9 0 508.85 0 508.85-15.1Q508.85-18.45 507.67-20 506.5-21.55 503.9-21.55L503.9-21.55Q500.85-21.55 499.1-19.5 497.35-17.45 497.35-13.9L497.35-13.9 497.35 0 493.3 0 493.3-15.1Q493.3-18.5 492.1-20.03 490.9-21.55 488.3-21.55L488.3-21.55Q485.25-21.55 483.5-19.5 481.75-17.45 481.75-13.9L481.75-13.9 481.75 0 477.7 0 477.7-24.35 481.7-24.35 481.7-20.5Q482.8-22.65 484.75-23.8 486.7-24.95 489.25-24.95L489.25-24.95Q494.9-24.95 496.7-20.15L496.7-20.15Q497.75-22.4 499.9-23.68 502.05-24.95 504.8-24.95L504.8-24.95ZM530.39 0.35Q526.94 0.35 524.32-1.2 521.69-2.75 520.27-5.63 518.84-8.5 518.84-12.3L518.84-12.3Q518.84-16.1 520.27-18.98 521.69-21.85 524.32-23.4 526.94-24.95 530.39-24.95L530.39-24.95Q533.84-24.95 536.5-23.4 539.14-21.85 540.57-18.98 542-16.1 542-12.3L542-12.3Q542-8.5 540.57-5.63 539.14-2.75 536.5-1.2 533.84 0.35 530.39 0.35L530.39 0.35ZM530.39-3Q534-3 535.92-5.38 537.84-7.75 537.84-12.3L537.84-12.3Q537.84-16.75 535.89-19.18 533.94-21.6 530.39-21.6L530.39-21.6Q526.84-21.6 524.89-19.18 522.94-16.75 522.94-12.3L522.94-12.3Q522.94-7.8 524.87-5.4 526.79-3 530.39-3L530.39-3ZM561.49-24.95L561.84-21.45 559.19-21.2Q555.44-20.85 553.77-18.85 552.09-16.85 552.09-13.9L552.09-13.9 552.09 0 548.04 0 548.04-24.35 551.99-24.35 551.99-20.1Q554.04-24.35 560.04-24.85L560.04-24.85 561.49-24.95ZM579.14-24.95L579.49-21.45 576.84-21.2Q573.09-20.85 571.41-18.85 569.74-16.85 569.74-13.9L569.74-13.9 569.74 0 565.69 0 565.69-24.35 569.64-24.35 569.64-20.1Q571.69-24.35 577.69-24.85L577.69-24.85 579.14-24.95ZM592.94 0.35Q589.49 0.35 586.86-1.2 584.24-2.75 582.81-5.63 581.39-8.5 581.39-12.3L581.39-12.3Q581.39-16.1 582.81-18.98 584.24-21.85 586.86-23.4 589.49-24.95 592.94-24.95L592.94-24.95Q596.39-24.95 599.04-23.4 601.69-21.85 603.11-18.98 604.54-16.1 604.54-12.3L604.54-12.3Q604.54-8.5 603.11-5.63 601.69-2.75 599.04-1.2 596.39 0.35 592.94 0.35L592.94 0.35ZM592.94-3Q596.54-3 598.46-5.38 600.39-7.75 600.39-12.3L600.39-12.3Q600.39-16.75 598.44-19.18 596.49-21.6 592.94-21.6L592.94-21.6Q589.39-21.6 587.44-19.18 585.49-16.75 585.49-12.3L585.49-12.3Q585.49-7.8 587.41-5.4 589.34-3 592.94-3L592.94-3ZM636.38-4.8L643.33-24.35 647.38-24.35 638.33 0 634.43 0 627.58-18.85 620.68 0 616.83 0 607.78-24.35 611.98-24.35 618.88-4.8 625.93-24.35 629.43-24.35 636.38-4.8Z" opacity="1" transform="matrix(1,0,0,1,0,0)" fill="#ffffff" class="slogan-text-1" data-fill-palette-color="secondary" id="text-1"></path></svg></g></svg></g></svg></g></svg></g><g></g></svg></g></svg></g><g><path d="M148.373 25.347A109.967 109.967 0 0 1 247.147 25.347L238.793 25.347A101.613 101.613 0 0 0 156.727 25.347L148.373 25.347M148.373 221.853A109.967 109.967 0 0 0 247.147 221.853L238.793 221.853A101.613 101.613 0 0 1 156.727 221.853L148.373 221.853" fill="#ffffff" stroke="transparent" data-fill-palette-color="tertiary"></path></g></svg></g><defs></defs></svg><rect width="395.52" height="247.2" fill="none" stroke="none" visibility="hidden"></rect></g></svg></g></svg>
